<?xml version="1.0" encoding="iso-8859-1"?>
<!-- Uploaded to: SVG Repo, www.svgrepo.com, Generator: SVG Repo Mixer Tools -->
<svg version="1.1" id="Layer_1" xmlns="http://www.w3.org/2000/svg" xmlns:xlink="http://www.w3.org/1999/xlink" 
	 viewBox="0 0 480 480" xml:space="preserve">
<path style="fill:#DF5349;" d="M353.04,33.913c32.88,32.96,32.88,86.32,0,119.2L214,292.153l-1.12-1.12l-1.2,1.12L72.72,153.113
	c-32.96-32.88-32.96-86.24,0-119.2c32.88-32.88,86.24-32.88,119.12,0l21.04,21.04l20.96-21.04
	C266.72,1.033,320.08,1.033,353.04,33.913z"/>
<path d="M211.68,300.153c-2.048,0-4.104-0.784-5.656-2.344l-138.96-139.04C49.624,141.377,40.016,118.233,40,93.601
	c-0.016-24.672,9.592-47.872,27.064-65.344c35.968-35.96,94.472-35.96,130.44,0l15.376,15.368l15.304-15.36
	c35.928-35.952,94.48-35.952,130.504-0.016c0.008,0,0.008,0.008,0.016,0.016c35.936,36.024,35.936,94.568-0.008,130.504
	l-139.04,139.04c-1.504,1.504-3.528,2.344-5.656,2.344h-0.008c-0.392,0-0.776-0.024-1.152-0.088
	C212.456,300.129,212.072,300.153,211.68,300.153z M132.28,17.281c-19.52,0-39.04,7.432-53.904,22.288
	C63.928,54.017,55.984,73.201,56,93.593c0.008,20.352,7.952,39.48,22.368,53.856l134.48,134.552l134.536-134.544
	c29.712-29.704,29.712-78.104,0-107.888c-29.776-29.688-78.168-29.704-107.88,0l-20.952,21.024
	c-1.496,1.504-3.528,2.352-5.656,2.352h-0.016c-2.128,0-4.16-0.84-5.656-2.344l-21.04-21.04
	C171.328,24.713,151.808,17.281,132.28,17.281z"/>
<circle style="fill:#FEF8F8;" cx="328" cy="62.713" r="8"/>
<path style="fill:#F36162;" d="M415.2,123.433c21.2,21.2,21.2,55.6,0,76.8l-89.6,89.68l-0.72-0.72l-0.72,0.72l-89.68-89.68
	c-21.2-21.2-21.2-55.6,0-76.8s55.6-21.2,76.8,0l13.6,13.52l13.52-13.52C359.6,102.233,394,102.233,415.2,123.433z"/>
<path d="M325.6,297.913c-0.24,0-0.488-0.008-0.72-0.032c-2.288,0.192-4.632-0.56-6.384-2.312l-89.68-89.68
	c-24.288-24.288-24.288-63.816,0-88.112c24.288-24.288,63.816-24.304,88.12,0l7.928,7.88l7.872-7.88
	c24.28-24.288,63.808-24.304,88.12,0l0,0c24.288,24.296,24.288,63.824,0,88.112l-89.6,89.68
	C329.76,297.065,327.728,297.913,325.6,297.913z M272.872,115.553c-11.856,0-23.72,4.512-32.744,13.536
	c-18.048,18.056-18.048,47.432,0,65.488l84.744,84.744l84.672-84.744c18.048-18.056,18.048-47.432,0-65.488
	c-18.064-18.04-47.432-18.048-65.496,0l-13.512,13.52c-3.12,3.12-8.168,3.128-11.296,0.016l-13.6-13.52
	C296.6,120.065,284.736,115.553,272.872,115.553z"/>
<circle style="fill:#FEF8F8;" cx="400" cy="150.713" r="8"/>
<path style="fill:#F79E4C;" d="M472,454.713v16H8v-16c0-17.68,14.32-32,32-32h400C457.68,422.713,472,437.033,472,454.713z"/>
<path d="M472,478.713H8c-4.424,0-8-3.584-8-8v-16c0-22.056,17.944-40,40-40h400c22.056,0,40,17.944,40,40v16
	C480,475.129,476.424,478.713,472,478.713z M16,462.713h448v-8c0-13.232-10.768-24-24-24H40c-13.232,0-24,10.768-24,24V462.713z"/>
<rect id="SVGCleanerId_0" x="48" y="327.593" style="fill:#FAC594;" width="384" height="95.12"/>
<g>
	<rect id="SVGCleanerId_0_1_" x="48" y="327.593" style="fill:#FAC594;" width="384" height="95.12"/>
</g>
<path d="M432,430.713H48c-4.424,0-8-3.584-8-8v-95.12c0-4.416,3.576-8,8-8h384c4.424,0,8,3.584,8,8v95.12
	C440,427.129,436.424,430.713,432,430.713z M56,414.713h368v-79.12H56V414.713z"/>
<path style="fill:#A64243;" d="M368,326.713c0,8.8-7.2,16-16,16s-16-7.2-16-16v16c0,9.68-8.64,17.44-18.72,15.76
	c-7.84-1.28-13.28-8.64-13.28-16.64v-15.12c0,8.8-7.2,16-16,16s-16-7.2-16-16v16c0,9.68-8.64,17.44-18.72,15.76
	c-7.84-1.28-13.28-8.64-13.28-16.64v-15.12c0,8.8-7.2,16-16,16s-16-7.2-16-16v16c0,9.68-8.64,17.44-18.72,15.76
	c-7.84-1.28-13.28-8.64-13.28-16.64v-15.12c0,8.8-7.2,16-16,16s-16-7.2-16-16c0,8.8-7.2,16-16,16s-16-7.2-16-16v16
	c0,9.68-8.64,17.44-18.72,15.76c-7.84-1.28-13.28-8.64-13.28-16.64v-15.12c0,9.68-8.64,17.44-18.72,15.76
	c-7.84-1.28-13.28-8.64-13.28-16.64v-15.12h-0.64l0.32-40.32c0.16-17.52,14.48-31.68,32-31.68h320c17.84,0,32.16,14.48,32,32.32
	l-0.24,31.68H432v40c0,9.68-8.64,17.44-18.72,15.76c-7.84-1.28-13.28-8.64-13.28-16.64v-15.12c0,8.8-7.2,16-16,16
	S368,335.513,368,326.713z"/>
<path d="M415.992,366.705c-1.336,0-2.68-0.112-4.024-0.336c-9.072-1.48-16.368-8.488-18.952-17.408
	c-8.168,3.304-18.56,1.416-25.016-4.368c-6.408,5.736-16.696,7.672-24.84,4.44c-1.256,4.64-3.896,8.832-7.656,12.008
	c-5.376,4.56-12.48,6.512-19.528,5.336c-9.072-1.48-16.368-8.488-18.952-17.408c-5.512,2.24-12.312,2.28-17.856,0.064
	c-1.256,4.64-3.896,8.832-7.656,12.008c-5.376,4.56-12.48,6.512-19.528,5.336c-9.072-1.48-16.368-8.488-18.952-17.408
	c-5.504,2.24-12.312,2.28-17.856,0.064c-1.256,4.64-3.896,8.832-7.656,12.008c-5.376,4.56-12.488,6.512-19.528,5.336
	c-9.072-1.48-16.368-8.488-18.952-17.408c-8.168,3.304-18.56,1.416-25.016-4.368c-6.408,5.736-16.704,7.672-24.84,4.44
	c-1.256,4.64-3.896,8.832-7.656,12.008c-5.376,4.56-12.48,6.512-19.528,5.336c-9.072-1.48-16.368-8.488-18.96-17.408
	c-4.064,1.648-8.568,2.16-13.04,1.408c-11.408-1.872-20-12.424-20-24.552v-12.336c-0.408-0.896-0.648-1.864-0.64-2.84l0.32-40.32
	c0.2-21.856,18.152-39.624,40-39.624h320c10.776,0,20.864,4.2,28.424,11.832c7.56,7.632,11.68,17.776,11.576,28.568l-0.216,28.888
	c0.344,0.84,0.536,1.76,0.536,2.712v40c0,7.064-3.104,13.744-8.496,18.32C427.152,364.721,421.656,366.705,415.992,366.705z
	 M408,326.713v15.12c0,4.304,2.88,8.144,6.568,8.744c2.456,0.4,4.776-0.216,6.584-1.752c1.808-1.528,2.848-3.76,2.848-6.112v-37.36
	c-0.36-0.856-0.568-1.776-0.56-2.704l0.24-31.68c0.064-6.496-2.408-12.592-6.944-17.168c-4.528-4.576-10.584-7.088-17.056-7.088
	h-320c-13.112,0-23.872,10.656-24,23.752l-0.296,37.368c0.4,0.896,0.616,1.872,0.616,2.88v15.12c0,4.304,2.88,8.144,6.568,8.744
	c2.464,0.4,4.784-0.216,6.584-1.752c1.808-1.528,2.848-3.76,2.848-6.112c0-4.416,3.576-8,8-8s8,3.584,8,8v15.12
	c0,4.304,2.88,8.144,6.568,8.744c2.456,0.4,4.776-0.216,6.584-1.752c1.808-1.528,2.848-3.76,2.848-6.112v-16c0-4.416,3.576-8,8-8
	c4.424,0,8,3.584,8,8c0,4.408,3.584,8,8,8s8-3.592,8-8c0-4.416,3.576-8,8-8s8,3.584,8,8c0,4.408,3.584,8,8,8s8-3.592,8-8
	c0-4.416,3.576-8,8-8s8,3.584,8,8v15.12c0,4.304,2.88,8.144,6.568,8.744c2.448,0.4,4.776-0.216,6.584-1.752
	c1.808-1.528,2.848-3.76,2.848-6.112v-16c0-4.416,3.576-8,8-8s8,3.584,8,8c0,4.408,3.584,8,8,8s8-3.592,8-8c0-4.416,3.576-8,8-8
	c4.424,0,8,3.584,8,8v15.12c0,4.304,2.88,8.144,6.568,8.744c2.456,0.4,4.776-0.216,6.584-1.752c1.808-1.528,2.848-3.76,2.848-6.112
	v-16c0-4.416,3.576-8,8-8s8,3.584,8,8c0,4.408,3.584,8,8,8s8-3.592,8-8c0-4.416,3.576-8,8-8s8,3.584,8,8v15.12
	c0,4.304,2.88,8.144,6.568,8.744c2.456,0.4,4.784-0.216,6.584-1.752c1.808-1.528,2.848-3.76,2.848-6.112v-16c0-4.416,3.576-8,8-8
	s8,3.584,8,8c0,4.408,3.584,8,8,8s8-3.592,8-8c0-4.416,3.576-8,8-8s8,3.584,8,8c0,4.408,3.584,8,8,8s8-3.592,8-8
	c0-4.416,3.576-8,8-8S408,322.297,408,326.713z"/>
</svg>